<?xml version="1.0" encoding="utf-8"?>
<!-- Generator: Adobe Illustrator 24.1.2, SVG Export Plug-In . SVG Version: 6.00 Build 0)  -->
<svg version="1.1" id="Layer_1" xmlns="http://www.w3.org/2000/svg" xmlns:xlink="http://www.w3.org/1999/xlink" x="0px" y="0px"
	 viewBox="0 0 756 343" style="enable-background:new 0 0 756 343;" xml:space="preserve">
<style type="text/css">
	.st0{fill:#FF6347;}
</style>
<g>
	<path class="st0" d="M76.7,186.6H48V227H24.8V125.8c0-6.5,5.2-12.2,11.7-12.2H75c24,0,36.5,12.8,36.5,36.5
		C111.5,172.5,99.4,186.6,76.7,186.6z M70.9,166.1c11.7,0.2,17.5-5.3,17.5-16.3s-5.5-16.5-16.3-16.5H48.3v32.8H70.9z"/>
	<path class="st0" d="M201.4,183.3c0,30.3-13.5,45.7-40.2,45.7s-40-15.3-40-45.7c0-30.7,13.3-45.9,40-45.9S201.4,152.6,201.4,183.3z
		 M143.7,183.3c0.2,17.2,6,25.8,17.3,25.8c11.3,0,17-9,17.2-26.5c0-17.2-5.7-25.7-17-25.7C149.6,157,143.7,165.8,143.7,183.3z"/>
	<path class="st0" d="M234.2,124.4v48.9l27.3-31.3h26.7l-30.5,32.7l30.8,52.4h-26.7l-15.7-29c-2.8-5-5.7-7.5-8.5-7.5
		c-2.3,0.5-3.5,2-3.5,4.3V227h-22.2V113.6h11.5C229.4,113.6,234.2,118.6,234.2,124.4z"/>
	<path class="st0" d="M326.3,229c-26.7-0.8-40-16.3-40-46.4c0-30,13.5-45,40.3-45.2c28,0,41.2,17.2,39.5,51.7h-57
		c0.8,13.5,6.7,20.3,17.5,20.3c5.2,0,10-2.2,14.3-6.3c2-2.2,4.5-3.2,7.5-3.2h16.3C360,218.6,348,229,326.3,229z M309.4,173.3h33.2
		c-1.3-11.7-6.8-17.7-16.3-17.7S311.1,161.6,309.4,173.3z"/>
	<path class="st0" d="M415,211c9.3,0,14-2.7,14-8.3c0-4.5-7.7-8.2-22.8-10.8c-19.5-3.5-29.5-12.2-29.7-26c0-19,15-28,35.2-28.3
		c11.3,0,20.3,2.5,27,7.5c6.5,5.2,10,12.3,10.5,21.5h-14c-5.2-0.2-8.5-2-9.8-5.5c-1.5-3.8-6-6-13.3-6c-8.7,0-13,2.3-13,6.8
		c0,4.5,5.7,8,17.2,10.2c15,3,24.8,6.8,29.7,11.3c4.2,4.3,6.2,9.7,6.2,15.7c0,21.7-17,29.7-40.3,29.7c-12.3,0-21.7-2.7-27.7-7.8
		c-6.7-5-10-12.7-10-22.8h22.7C397.1,207.6,404.2,211,415,211z"/>
	<path class="st0" d="M486.2,154.6h-2.3v48.9c0,3.7,2.2,5.7,6.5,5.7h6.8V226c-7.2,0.7-15,0.7-23.3-0.2c-8.3-0.8-12.3-6-12.2-15.8
		v-96.4h11.5c5.8,0,10.7,5.3,10.7,11.2v14h13.3v4.8C497.2,150,492.4,154.6,486.2,154.6z"/>
	<path class="st0" d="M586.1,183.3c0,30.3-13.5,45.7-40.2,45.7c-26.7,0-40-15.3-40-45.7c0-30.7,13.3-45.9,40-45.9
		C572.6,137.4,586.1,152.6,586.1,183.3z M528.4,183.3c0.2,17.2,6,25.8,17.3,25.8s17-9,17.2-26.5c0-17.2-5.7-25.7-17-25.7
		C534.2,157,528.4,165.8,528.4,183.3z"/>
	<path class="st0" d="M596.7,181.5c0.7-28.5,15.8-42.7,45.4-42.7h3.2v23h-7.5c-12.3,0-18.5,6.5-18.5,19.3V227h-22.5V181.5z"/>
	<path class="st0" d="M694.9,229c-26.7-0.8-40-16.3-40-46.4c0-30,13.5-45,40.3-45.2c28,0,41.2,17.2,39.5,51.7h-57
		c0.8,13.5,6.7,20.3,17.5,20.3c5.2,0,10-2.2,14.3-6.3c2-2.2,4.5-3.2,7.5-3.2h16.3C728.6,218.6,716.6,229,694.9,229z M678.1,173.3
		h33.2c-1.3-11.7-6.8-17.7-16.3-17.7S679.8,161.6,678.1,173.3z"/>
</g>
</svg>
