<?xml version="1.0" encoding="utf-8"?>
<!-- Generator: Adobe Illustrator 24.1.2, SVG Export Plug-In . SVG Version: 6.00 Build 0)  -->
<svg version="1.1" id="Layer_1" xmlns="http://www.w3.org/2000/svg" xmlns:xlink="http://www.w3.org/1999/xlink" x="0px" y="0px"
	 viewBox="0 0 756 343" style="enable-background:new 0 0 756 343;" xml:space="preserve">
<g>
	<path d="M109.43,153.35c3.12-6.25,6.25-12.46,9.37-18.63c3.12-6.17,5.95-11.94,8.48-17.29c2.53-5.36,4.69-10.15,6.47-14.39
		c1.79-4.24,2.82-7.62,3.12-10.15c0.3-2.68,0.07-4.98-0.67-6.92c-0.75-1.93-1.97-3.49-3.68-4.69c-1.71-1.19-3.72-2.12-6.02-2.79
		c-2.31-0.67-4.87-1.08-7.7-1.23c-4.91-0.3-10.75-0.18-17.52,0.33c-6.77,0.52-13.28,1.49-19.52,2.9
		c-6.25,1.42-11.64,3.39-16.18,5.91c-4.54,2.53-6.96,5.65-7.25,9.37c-0.15,2.08,0.22,3.94,1.12,5.58c0.74,1.34,2.12,2.6,4.13,3.79
		c2.01,1.19,5.02,1.64,9.04,1.34c0.74,0,1.64-0.07,2.68-0.22c0.89-0.15,2.01-0.33,3.35-0.56c1.34-0.22,2.9-0.56,4.69-1l-10.93,14.73
		c-2.08,2.98-4.32,4.76-6.69,5.35c-2.38,0.6-4.54,0.75-6.47,0.45c-1.04-0.15-3.09-0.67-6.14-1.56c-3.05-0.89-6.1-2.23-9.15-4.02
		c-3.05-1.79-5.69-4.2-7.92-7.25c-2.23-3.05-3.12-6.88-2.68-11.49c0.59-5.36,2.9-10.3,6.92-14.84c4.02-4.54,9.63-8.44,16.85-11.71
		c7.21-3.27,15.84-5.8,25.88-7.59c10.04-1.79,21.38-2.68,34.03-2.68c9.52,0,17.1,1,22.76,3.01c5.65,2.01,9.78,4.61,12.38,7.81
		c2.6,3.2,3.87,6.92,3.79,11.16c-0.08,4.24-1,8.59-2.79,13.05c-0.89,2.08-2.2,4.95-3.9,8.59c-1.71,3.65-3.76,7.89-6.14,12.72
		c-2.38,4.84-4.91,10.15-7.59,15.95s-5.36,11.83-8.03,18.07c4.02,0.3,7.7,0.67,11.05,1.12s5.99,0.82,7.92,1.12
		c2.23,0.6,2.97,1.56,2.23,2.9c-1.34,2.68-2.64,4.69-3.9,6.02c-1.27,1.34-2.64,2.27-4.13,2.79c-1.49,0.52-3.12,0.75-4.91,0.67
		c-1.79-0.07-3.79-0.19-6.02-0.33c-1.34,0-2.68-0.04-4.02-0.11c-1.34-0.07-2.75-0.19-4.24-0.33c-2.83,6.69-5.54,13.32-8.15,19.86
		c-2.6,6.55-4.99,12.76-7.14,18.63c-2.16,5.88-4.06,11.27-5.69,16.18c-1.64,4.91-2.75,9-3.35,12.27c-0.89,4.61-1.56,8.93-2.01,12.94
		c-0.3,3.42-0.45,6.99-0.45,10.71c0,3.72,0.59,6.69,1.79,8.93c-3.12,0.89-5.84,1.63-8.14,2.23c-2.31,0.59-4.28,1.04-5.91,1.34
		c-1.79,0.45-3.27,0.82-4.46,1.12c-4.17,1.04-7.11,0.93-8.81-0.33c-1.71-1.27-2.2-4.28-1.45-9.04c0.3-3.27,0.78-6.96,1.45-11.04
		c0.67-4.09,1.71-8.7,3.12-13.83c1.41-5.13,3.27-10.86,5.58-17.18c2.3-6.32,5.24-13.35,8.81-21.09c2.08-4.46,4.46-9.41,7.14-14.84
		c2.68-5.43,5.5-11.27,8.48-17.52c-6.55,0-13.61,0.45-21.2,1.34c-4.17,0.6-8.26,1.27-12.27,2.01c-3.42,0.75-7.11,1.6-11.05,2.57
		c-3.94,0.97-7.62,2.05-11.05,3.24c-0.45-1.19-0.71-2.38-0.78-3.57c-0.08-1.19-0.04-2.3,0.11-3.35c0.15-1.04,0.37-2.08,0.67-3.12
		c0.3-1.04,0.74-2.08,1.34-3.12c0.89-1.79,2.3-4.02,4.24-6.69c6.99-0.89,13.68-1.56,20.08-2.01c6.39-0.45,12.05-0.82,16.96-1.12
		c5.8-0.3,11.23-0.45,16.29-0.45c0.74-0.15,1.37-0.18,1.9-0.11C108.05,153.31,108.69,153.35,109.43,153.35z"/>
	<path d="M272.32,187.49c-2.08,2.98-4.76,6.66-8.03,11.04c-3.27,4.39-6.66,8.78-10.15,13.17c-3.5,4.39-6.92,8.41-10.26,12.05
		c-3.35,3.65-6.14,6.21-8.37,7.7c-1.49,0.89-3.2,1.63-5.13,2.23c-1.94,0.59-3.91,0.97-5.91,1.12c-2.01,0.15-3.91,0.04-5.69-0.33
		c-1.79-0.37-3.35-1-4.69-1.9c-1.34-1.04-2.46-2.53-3.35-4.46c-0.75-1.64-1.45-3.79-2.12-6.47c-0.67-2.68-0.93-6.02-0.78-10.04
		c-3.57,5.95-7.51,10.53-11.83,13.72c-4.32,3.2-8.41,5.54-12.27,7.03c-4.46,1.63-8.93,2.6-13.39,2.9c-2.08,0-4.32-0.71-6.69-2.12
		c-2.38-1.41-4.39-3.64-6.02-6.69c-1.64-3.05-2.68-6.99-3.12-11.83c-0.45-4.83,0.15-10.6,1.79-17.29
		c2.08-9.07,5.39-17.33,9.93-24.77c4.54-7.44,9.48-13.8,14.84-19.08c5.36-5.28,10.63-9.26,15.84-11.94
		c5.21-2.68,9.52-3.87,12.94-3.57c4.02,0.75,7.29,1.93,9.82,3.57c2.08,1.49,3.46,3.68,4.13,6.58c0.67,2.9-0.56,6.73-3.68,11.49
		c2.08-0.45,3.83-0.74,5.24-0.89c1.41-0.15,2.49-0.22,3.24-0.22c0.89,0,1.49,0.08,1.79,0.22c0.15,0.3,0.22,0.93,0.22,1.9
		c0,0.97-0.22,2.72-0.67,5.24c-0.45,2.53-1.12,5.95-2.01,10.26c-0.89,4.32-2.08,9.9-3.57,16.74c-0.3,1.34-0.56,2.57-0.78,3.68
		c-0.22,1.12-0.45,2.23-0.67,3.35c-0.22,1.12-0.48,2.42-0.78,3.91c-0.3,1.49-0.67,3.35-1.12,5.58c-0.15,1.34-0.19,2.79-0.11,4.35
		c0.07,1.56,0.33,3.01,0.78,4.35s1.15,2.42,2.12,3.24c0.97,0.82,2.34,1.23,4.13,1.23c1.49,0,3.42-0.93,5.8-2.79
		c2.38-1.86,4.91-4.24,7.59-7.14c2.68-2.9,5.47-6.1,8.37-9.59c2.9-3.49,5.61-6.88,8.14-10.15c2.53-3.27,4.8-6.17,6.81-8.7
		c2.01-2.53,3.46-4.39,4.35-5.58c1.19-1.34,2.38-2.12,3.57-2.34c1.19-0.22,2.08,0.11,2.68,1c0.59,0.89,0.71,2.23,0.33,4.02
		C275.19,183.02,274.11,185.11,272.32,187.49z M206.94,197.3c0.74-2.97,1.63-6.47,2.68-10.49c1.04-4.02,1.93-7.88,2.68-11.6
		c0.74-3.72,1.3-6.81,1.67-9.26c0.37-2.46,0.26-3.61-0.33-3.46c-0.75,0.15-1.56,0.37-2.46,0.67c-0.75,0.3-1.71,0.52-2.9,0.67
		c-1.19,0.15-2.38,0.37-3.57,0.67c1.19-2.38,1.9-4.35,2.12-5.91c0.22-1.56,0.26-2.79,0.11-3.68c-0.15-1.04-0.45-1.86-0.89-2.45
		c-1.64-1.34-4.5-0.26-8.59,3.24c-4.09,3.5-8.81,9.93-14.17,19.3c-2.23,3.87-4.02,8-5.35,12.38c-1.34,4.39-2.27,8.52-2.79,12.38
		c-0.52,3.87-0.63,7.25-0.33,10.15c0.3,2.9,0.89,4.8,1.79,5.69c1.64,1.64,3.49,2.42,5.58,2.34c2.08-0.07,4.2-0.67,6.36-1.79
		c2.15-1.12,4.31-2.57,6.47-4.35c2.16-1.78,4.09-3.64,5.8-5.58c1.71-1.93,3.12-3.72,4.24-5.36
		C206.16,199.24,206.79,198.05,206.94,197.3z"/>
	<path d="M288.84,224.3c0.89,0.6,2.04,0.89,3.46,0.89c1.41,0,2.82-0.3,4.24-0.89c1.41-0.59,2.75-1.41,4.02-2.45
		c1.26-1.04,2.19-2.38,2.79-4.02c0.59-1.64,0.59-3.98,0-7.03c-0.6-3.05-1.53-6.32-2.79-9.82c-1.27-3.49-2.64-7.03-4.13-10.6
		c-1.49-3.57-2.75-6.84-3.79-9.82c-0.89-2.23-1.64-4.31-2.23-6.25c-0.6-1.63-1.15-3.24-1.67-4.8c-0.52-1.56-0.93-2.64-1.23-3.24
		c-0.75,1.19-2.05,3.12-3.91,5.8c-1.86,2.68-3.87,5.47-6.02,8.37c-2.16,2.9-4.21,5.58-6.14,8.03c-1.93,2.45-3.27,4.13-4.02,5.02
		c-1.19,1.34-2.34,2.12-3.46,2.34c-1.12,0.22-2.05,0-2.79-0.67c-0.75-0.67-1.15-1.64-1.23-2.9c-0.08-1.26,0.48-2.79,1.67-4.57
		c0.89-1.19,2.23-3.09,4.02-5.69c1.79-2.6,3.57-5.28,5.36-8.03c1.79-2.75,3.42-5.21,4.91-7.36c1.49-2.15,2.3-3.46,2.46-3.9
		c0.3-1.19-0.11-2.75-1.23-4.69c-1.12-1.93-1.3-4.16-0.56-6.69c0.59-2.08,1.93-4.5,4.02-7.25c2.08-2.75,4.54-5.24,7.36-7.47
		c2.82-2.23,5.72-3.91,8.7-5.02c2.97-1.12,5.65-1.08,8.03,0.11c1.93,1.19,3.49,2.49,4.69,3.9c1.19,1.42,1.64,2.87,1.34,4.35
		c-0.3,0.75-0.75,1.71-1.34,2.9c-0.6,1.19-1.49,2.64-2.68,4.35c-1.19,1.71-2.9,3.91-5.13,6.58c0.45,3.42,1.08,6.55,1.9,9.37
		c0.82,2.83,1.6,5.28,2.34,7.36c0.89,2.53,1.86,4.84,2.9,6.92c1.34,2.68,2.75,5.43,4.24,8.26c1.49,2.83,2.82,5.62,4.02,8.37
		c1.19,2.75,2.16,5.32,2.9,7.7c0.74,2.38,0.97,4.39,0.67,6.03c-0.45,2.53-1.75,5.58-3.91,9.15c-2.16,3.57-4.84,7.03-8.03,10.38
		c-3.2,3.35-6.84,6.21-10.93,8.59c-4.09,2.38-8.37,3.57-12.83,3.57c-3.12,0-6.14-0.97-9.04-2.9c-2.9-1.93-5.36-4.2-7.36-6.81
		c-2.01-2.6-3.5-5.17-4.46-7.7c-0.97-2.53-1.08-4.46-0.33-5.8c0.89-1.79,1.71-3.2,2.45-4.24c0.74-1.04,1.86-2.23,3.35-3.57
		c0.59-0.45,1.34-0.97,2.23-1.56c0.74-0.45,1.79-0.89,3.12-1.34s2.9-0.97,4.69-1.56c1.49,4.61,2.82,8.22,4.02,10.82
		c1.19,2.6,2.15,4.65,2.9,6.14C287.27,222.6,288.09,223.71,288.84,224.3z"/>
	<path d="M452.84,182.8c1.04-1.19,2.12-1.82,3.24-1.9c1.12-0.07,2.01,0.22,2.68,0.89c0.67,0.67,0.97,1.67,0.89,3.01
		c-0.08,1.34-0.71,2.83-1.9,4.46c-2.83,3.87-6.1,7.85-9.82,11.94c-3.72,4.09-7.7,8.07-11.94,11.94c-4.24,3.87-8.52,7.51-12.83,10.93
		c-4.32,3.42-8.48,6.25-12.5,8.48c-4.46,2.53-8.22,3.79-11.27,3.79c-3.05,0-6.06-1.94-9.04-5.8c-2.68-3.42-3.98-7.1-3.91-11.04
		c0.07-3.94,0.93-8.89,2.57-14.84c1.04-3.72,2.49-8.14,4.35-13.28c1.86-5.13,3.35-10.08,4.46-14.84c1.12-4.76,1.45-8.81,1-12.16
		c-0.45-3.35-2.38-5.02-5.8-5.02c-2.38,0-4.95,0.82-7.7,2.46c-2.75,1.64-5.51,3.76-8.26,6.36c-2.75,2.6-5.39,5.54-7.92,8.81
		c-2.53,3.27-4.76,6.47-6.69,9.6c-1.19,5.8-2.38,11.53-3.57,17.18c-1.04,4.76-2.12,9.93-3.24,15.51c-1.12,5.58-2.2,10.53-3.24,14.84
		c-0.89,0.74-1.86,1.26-2.9,1.56c-1.04,0.3-2.01,0.45-2.9,0.45c-1.04,0-2.08-0.08-3.12-0.22c-1.19-0.3-2.31-0.75-3.35-1.34
		c-0.89-0.6-1.79-1.38-2.68-2.34c-0.89-0.97-1.56-2.27-2.01-3.91c6.69-27.52,11.97-49.61,15.84-66.27
		c3.87-16.66,6.84-29.38,8.93-38.16c2.38-10.41,4.02-17.63,4.91-21.64c0.45-2.82,0.82-5.58,1.12-8.26c0.3-2.38,0.45-4.83,0.45-7.36
		c0-2.53-0.22-4.83-0.67-6.92c1.19-0.74,2.49-1.34,3.91-1.79c1.41-0.45,2.79-0.82,4.13-1.12c1.63-0.45,3.27-0.82,4.91-1.12
		c1.63-0.3,3.12-0.45,4.46-0.45c1.19,0,2.3,0.11,3.35,0.33c1.04,0.22,1.71,0.71,2.01,1.45c0.89,0.75,1.3,2.23,1.23,4.46
		c-0.08,2.23-0.26,4.54-0.56,6.92c-0.6,2.83-1.27,5.88-2.01,9.15c-3.12,12.05-6.62,23.76-10.49,35.14
		c-3.87,11.38-7.44,23.54-10.71,36.48c1.93-2.97,4.24-6.02,6.92-9.15s5.61-5.99,8.81-8.59c3.2-2.6,6.58-4.76,10.15-6.47
		c3.57-1.71,7.36-2.57,11.38-2.57c2.08,0,4.05,0.33,5.91,1c1.86,0.67,3.49,1.79,4.91,3.35c1.41,1.56,2.49,3.65,3.24,6.25
		c0.74,2.6,1.04,5.84,0.89,9.71c0,2.38-0.26,4.83-0.78,7.36c-0.52,2.53-1.23,5.32-2.12,8.37c-0.89,3.05-2.05,6.44-3.46,10.15
		c-1.42,3.72-3.09,8.03-5.02,12.94c-1.34,3.42-2.38,6.32-3.12,8.7c-0.75,2.38-0.6,4.46,0.45,6.25c1.34,2.38,3.98,2.94,7.92,1.67
		c3.94-1.26,9.85-5.09,17.74-11.49c1.79-1.49,3.79-3.35,6.02-5.58s4.39-4.5,6.47-6.81c2.08-2.3,4.02-4.5,5.8-6.58
		C450.17,185.63,451.65,183.99,452.84,182.8z"/>
	<path d="M462.44,147.99c0.74-0.89,2.15-1.64,4.24-2.23c2.08-0.59,4.24-1.08,6.47-1.45c2.23-0.37,4.27-0.59,6.14-0.67
		c1.86-0.07,2.94-0.03,3.24,0.11c0.15,0.15-0.22,1.71-1.12,4.69c-0.89,2.98-2.01,6.47-3.35,10.49s-2.75,8.14-4.24,12.38
		c-1.49,4.24-2.6,7.7-3.35,10.38c-0.75,2.68-1.64,5.69-2.68,9.04c-1.04,3.35-1.97,6.62-2.79,9.82c-0.82,3.2-1.38,6.21-1.67,9.04
		c-0.3,2.83-0.08,4.99,0.67,6.47c0.74,1.79,1.56,3.01,2.45,3.68c0.89,0.67,1.86,1,2.9,1c2.97,0,6.73-1.63,11.27-4.91
		c4.54-3.27,9.15-7.17,13.83-11.71c4.69-4.54,9.04-9.15,13.05-13.83c4.02-4.69,6.99-8.44,8.92-11.27c1.19-1.49,2.42-2.46,3.68-2.9
		c1.26-0.45,2.3-0.37,3.12,0.22c0.82,0.6,1.26,1.56,1.34,2.9c0.07,1.34-0.41,2.9-1.45,4.69c-2.38,4.17-5.88,9.11-10.49,14.84
		c-4.61,5.73-9.52,11.23-14.73,16.51c-5.21,5.28-10.3,9.78-15.29,13.5c-4.99,3.72-9.04,5.65-12.16,5.8
		c-2.53,0.15-5.02-0.26-7.47-1.23c-2.46-0.97-4.69-2.3-6.69-4.02c-2.01-1.71-3.68-3.72-5.02-6.02c-1.34-2.3-2.08-4.72-2.23-7.25
		c-0.45-3.72-0.45-8.81,0-15.29s1.26-13.09,2.45-19.86c1.19-6.77,2.71-13.2,4.57-19.3C457.94,155.5,460.06,150.97,462.44,147.99z
		 M493.23,100.46c-0.45,1.64-1.3,3.24-2.57,4.8c-1.27,1.56-2.68,2.83-4.24,3.79c-1.56,0.97-3.16,1.6-4.8,1.9
		c-1.64,0.3-2.98,0-4.02-0.89c-3.12-2.38-4.76-4.94-4.91-7.7c-0.15-2.75,0.52-5.35,2.01-7.81c1.49-2.45,3.35-4.54,5.58-6.25
		c2.23-1.71,4.16-2.71,5.8-3.01c1.63-0.3,3.01,0.04,4.13,1c1.12,0.97,1.97,2.23,2.57,3.79c0.59,1.56,0.93,3.31,1,5.24
		C493.86,97.26,493.68,98.98,493.23,100.46z"/>
	<path d="M572.89,196.41c-1.49,5.66-3.5,10.93-6.02,15.84c-2.53,4.91-5.54,9.15-9.04,12.72c-3.5,3.57-7.44,6.36-11.83,8.37
		c-4.39,2.01-9.19,3.01-14.39,3.01c-6.1,0-10.9-1.3-14.39-3.91c-3.5-2.6-6.1-5.84-7.81-9.71c-1.71-3.87-2.75-8.11-3.12-12.72
		c-0.37-4.61-0.56-8.93-0.56-12.94c0-2.82,0.33-5.95,1-9.37c0.67-3.42,1.6-6.92,2.79-10.49c1.19-3.57,2.71-7.14,4.57-10.71
		c1.86-3.57,4.05-6.84,6.58-9.82c0.89-2.53,2.27-4.76,4.13-6.69c1.86-1.93,4.02-3.53,6.47-4.8c2.46-1.26,5.09-2.23,7.92-2.9
		c2.82-0.67,5.58-1,8.26-1c0.45,0,0.85,0.08,1.23,0.22c0.37,0.15,0.78,0.3,1.23,0.45c1.93,0.15,4.35,0.89,7.25,2.23
		c2.9,1.34,5.72,3.35,8.48,6.02c2.75,2.68,5.09,6.06,7.03,10.15c1.93,4.09,2.9,9.04,2.9,14.84c0,1.19-0.08,2.64-0.22,4.35
		c-0.15,1.71-0.3,3.16-0.45,4.35c3.42-1.34,6.99-2.97,10.71-4.91c3.72-1.93,7.33-3.98,10.82-6.14c3.49-2.15,6.73-4.35,9.71-6.58
		c2.97-2.23,5.36-4.24,7.14-6.02c1.49-1.34,2.75-2.08,3.79-2.23c1.04-0.15,1.79,0.15,2.23,0.89c0.45,0.75,0.52,1.79,0.22,3.12
		c-0.3,1.34-1.12,2.83-2.46,4.46c-0.75,0.89-2.64,2.68-5.69,5.36c-3.05,2.68-6.66,5.58-10.82,8.7c-4.17,3.12-8.7,6.17-13.61,9.15
		C582.04,192.69,577.35,194.93,572.89,196.41z M520.9,201.77c0,2.68,0.15,5.32,0.45,7.92c0.3,2.6,0.89,4.91,1.79,6.92
		c0.89,2.01,2.08,3.65,3.57,4.91c1.49,1.27,3.42,1.9,5.8,1.9c2.68,0,5.13-0.63,7.36-1.9c2.23-1.26,4.24-2.9,6.03-4.91
		c1.79-2.01,3.38-4.31,4.8-6.92c1.41-2.6,2.64-5.32,3.68-8.14c-1.04,0.15-2.05,0.26-3.01,0.33c-0.97,0.08-2.05,0.11-3.24,0.11
		c-5.66,0-10.53-1.67-14.62-5.02c-4.09-3.35-7.25-7.62-9.48-12.83c-0.89,3.12-1.64,6.17-2.23,9.15
		C521.2,196.26,520.9,199.09,520.9,201.77z M535.18,162.49c-0.45,1.34-0.67,2.75-0.67,4.24c0,2.38,0.15,4.88,0.45,7.48
		c0.3,2.6,1.04,4.95,2.23,7.03c1.19,2.08,3.09,3.83,5.69,5.24c2.6,1.42,6.21,2.12,10.82,2.12c0.74,0,1.49-0.04,2.23-0.11
		c0.74-0.07,1.49-0.18,2.23-0.33c0.45-1.93,0.85-3.68,1.23-5.24c0.37-1.56,0.56-2.94,0.56-4.13c0.3-2.82,0.3-5.72,0-8.7
		c-0.3-2.97-0.86-5.69-1.67-8.14c-0.82-2.46-1.86-4.46-3.12-6.03c-1.27-1.56-2.79-2.34-4.57-2.34c-2.83,0-5.54,0.78-8.14,2.34
		C539.83,157.47,537.41,159.67,535.18,162.49z"/>
	<path d="M663.04,237.47c-3.42,0-6.36-0.63-8.81-1.9c-2.45-1.27-4.43-2.94-5.91-5.02c-1.49-2.08-2.45-4.5-2.9-7.25
		c-0.45-2.75-0.3-5.69,0.45-8.81c0.45-2.08,1.19-4.87,2.23-8.37c1.04-3.49,2.12-7.29,3.24-11.38c1.12-4.09,2.15-8.18,3.12-12.27
		c0.97-4.09,1.6-7.81,1.9-11.16c0.3-3.35,0.15-6.1-0.45-8.26c-0.6-2.15-1.86-3.24-3.79-3.24c-2.38,0-4.84,0.78-7.36,2.34
		c-2.53,1.56-5.1,3.68-7.7,6.36c-2.6,2.68-5.21,5.77-7.81,9.26c-2.6,3.5-5.17,7.11-7.7,10.82c-1.34,5.06-2.46,9.48-3.35,13.28
		c-0.89,3.79-1.67,7.22-2.34,10.26c-0.67,3.05-1.3,5.73-1.9,8.03c-0.6,2.31-1.12,4.5-1.56,6.58c-0.45,1.49-1.79,2.94-4.02,4.35
		s-4.61,2.57-7.14,3.46c-2.53,0.89-4.72,1.34-6.58,1.34c-1.86,0-2.64-0.67-2.34-2.01c0.15-0.89,0.63-2.9,1.45-6.02
		c0.82-3.12,1.79-6.81,2.9-11.04c1.12-4.24,2.27-8.74,3.46-13.5c1.19-4.76,2.3-9.3,3.35-13.61c0.74-3.42,1.56-7.21,2.45-11.38
		c0.74-3.57,1.67-7.73,2.79-12.5c1.12-4.76,2.42-9.96,3.91-15.62c1.04-0.89,2.12-1.6,3.24-2.12c1.12-0.52,2.27-0.93,3.46-1.23
		c1.19-0.45,2.45-0.74,3.79-0.89c1.19,0,2.38,0.08,3.57,0.22c1.04,0.15,2.12,0.41,3.24,0.78c1.12,0.37,2.12,0.93,3.01,1.67
		c-0.45,1.04-0.97,2.49-1.56,4.35c-0.6,1.86-1.19,3.83-1.79,5.91c-0.6,2.38-1.34,4.84-2.23,7.36c1.93-2.68,4.13-5.39,6.58-8.14
		c2.46-2.75,5.13-5.24,8.03-7.47c2.9-2.23,5.99-4.05,9.26-5.47c3.27-1.41,6.62-2.12,10.04-2.12c2.82,0,5.36,0.82,7.59,2.45
		c2.23,1.64,3.98,3.91,5.24,6.81c1.26,2.9,2.01,6.36,2.23,10.38c0.22,4.02-0.33,8.41-1.67,13.17l-2.46,9.82
		c-0.75,3.12-1.67,6.81-2.79,11.04c-1.12,4.24-2.49,8.89-4.13,13.95c-0.89,3.27-1.23,6.1-1,8.48c0.22,2.38,1.67,3.57,4.35,3.57
		s6.06-1.64,10.15-4.91c4.09-3.27,8.22-7.21,12.38-11.83c4.16-4.61,8.11-9.33,11.83-14.17c3.72-4.83,6.54-8.74,8.48-11.71
		c1.34-1.93,2.6-3.2,3.79-3.79c1.19-0.59,2.12-0.67,2.79-0.22c0.67,0.45,1,1.45,1,3.01c0,1.56-0.6,3.54-1.79,5.91
		c-1.04,2.08-2.64,4.84-4.8,8.26c-2.16,3.42-4.72,7.07-7.7,10.93c-2.98,3.87-6.17,7.77-9.6,11.71c-3.42,3.94-6.99,7.51-10.71,10.71
		c-3.72,3.2-7.4,5.8-11.04,7.81C669.77,236.46,666.31,237.47,663.04,237.47z"/>
</g>
</svg>
