<?xml version="1.0" encoding="utf-8"?>
<!-- Generator: Adobe Illustrator 24.1.2, SVG Export Plug-In . SVG Version: 6.00 Build 0)  -->
<svg version="1.1" id="Layer_1" xmlns="http://www.w3.org/2000/svg" xmlns:xlink="http://www.w3.org/1999/xlink" x="0px" y="0px"
	 viewBox="0 0 756 343" style="enable-background:new 0 0 756 343;" xml:space="preserve">
<style type="text/css">
	.st0{fill:#E3566E;}
</style>
<g>
	<path class="st0" d="M109.4,153.4c3.1-6.2,6.2-12.5,9.4-18.6s5.9-11.9,8.5-17.3c2.5-5.4,4.7-10.2,6.5-14.4
		c1.8-4.2,2.8-7.6,3.1-10.2c0.3-2.7,0.1-5-0.7-6.9c-0.8-1.9-2-3.5-3.7-4.7c-1.7-1.2-3.7-2.1-6-2.8c-2.3-0.7-4.9-1.1-7.7-1.2
		c-4.9-0.3-10.8-0.2-17.5,0.3c-6.8,0.5-13.3,1.5-19.5,2.9c-6.2,1.4-11.6,3.4-16.2,5.9c-4.5,2.5-7,5.7-7.2,9.4
		c-0.2,2.1,0.2,3.9,1.1,5.6c0.7,1.3,2.1,2.6,4.1,3.8s5,1.6,9,1.3c0.7,0,1.6-0.1,2.7-0.2c0.9-0.2,2-0.3,3.3-0.6
		c1.3-0.2,2.9-0.6,4.7-1l-10.9,14.7c-2.1,3-4.3,4.8-6.7,5.3c-2.4,0.6-4.5,0.8-6.5,0.4c-1-0.2-3.1-0.7-6.1-1.6s-6.1-2.2-9.2-4
		c-3-1.8-5.7-4.2-7.9-7.2s-3.1-6.9-2.7-11.5c0.6-5.4,2.9-10.3,6.9-14.8s9.6-8.4,16.8-11.7c7.2-3.3,15.8-5.8,25.9-7.6
		s21.4-2.7,34-2.7c9.5,0,17.1,1,22.8,3c5.6,2,9.8,4.6,12.4,7.8s3.9,6.9,3.8,11.2c-0.1,4.2-1,8.6-2.8,13.1c-0.9,2.1-2.2,4.9-3.9,8.6
		c-1.7,3.7-3.8,7.9-6.1,12.7c-2.4,4.8-4.9,10.1-7.6,15.9s-5.4,11.8-8,18.1c4,0.3,7.7,0.7,11.1,1.1s6,0.8,7.9,1.1
		c2.2,0.6,3,1.6,2.2,2.9c-1.3,2.7-2.6,4.7-3.9,6c-1.3,1.3-2.6,2.3-4.1,2.8c-1.5,0.5-3.1,0.8-4.9,0.7c-1.8-0.1-3.8-0.2-6-0.3
		c-1.3,0-2.7,0-4-0.1s-2.8-0.2-4.2-0.3c-2.8,6.7-5.5,13.3-8.2,19.9c-2.6,6.6-5,12.8-7.1,18.6c-2.2,5.9-4.1,11.3-5.7,16.2
		c-1.6,4.9-2.8,9-3.3,12.3c-0.9,4.6-1.6,8.9-2,12.9c-0.3,3.4-0.4,7-0.4,10.7s0.6,6.7,1.8,8.9c-3.1,0.9-5.8,1.6-8.1,2.2
		c-2.3,0.6-4.3,1-5.9,1.3c-1.8,0.5-3.3,0.8-4.5,1.1c-4.2,1-7.1,0.9-8.8-0.3c-1.7-1.3-2.2-4.3-1.4-9c0.3-3.3,0.8-7,1.4-11
		c0.7-4.1,1.7-8.7,3.1-13.8s3.3-10.9,5.6-17.2c2.3-6.3,5.2-13.4,8.8-21.1c2.1-4.5,4.5-9.4,7.1-14.8s5.5-11.3,8.5-17.5
		c-6.6,0-13.6,0.4-21.2,1.3c-4.2,0.6-8.3,1.3-12.3,2c-3.4,0.8-7.1,1.6-11,2.6s-7.6,2.1-11,3.2c-0.5-1.2-0.7-2.4-0.8-3.6
		c-0.1-1.2,0-2.3,0.1-3.4c0.2-1,0.4-2.1,0.7-3.1s0.7-2.1,1.3-3.1c0.9-1.8,2.3-4,4.2-6.7c7-0.9,13.7-1.6,20.1-2
		c6.4-0.4,12.1-0.8,17-1.1c5.8-0.3,11.2-0.4,16.3-0.4c0.7-0.1,1.4-0.2,1.9-0.1C108.1,153.3,108.7,153.4,109.4,153.4z"/>
	<path class="st0" d="M272.3,187.5c-2.1,3-4.8,6.7-8,11c-3.3,4.4-6.7,8.8-10.1,13.2c-3.5,4.4-6.9,8.4-10.3,12.1
		c-3.4,3.6-6.1,6.2-8.4,7.7c-1.5,0.9-3.2,1.6-5.1,2.2c-1.9,0.6-3.9,1-5.9,1.1c-2,0.1-3.9,0-5.7-0.3c-1.8-0.4-3.4-1-4.7-1.9
		c-1.3-1-2.5-2.5-3.4-4.5c-0.8-1.6-1.4-3.8-2.1-6.5c-0.7-2.7-0.9-6-0.8-10c-3.6,5.9-7.5,10.5-11.8,13.7c-4.3,3.2-8.4,5.5-12.3,7
		c-4.5,1.6-8.9,2.6-13.4,2.9c-2.1,0-4.3-0.7-6.7-2.1c-2.4-1.4-4.4-3.6-6-6.7c-1.6-3.1-2.7-7-3.1-11.8c-0.4-4.8,0.1-10.6,1.8-17.3
		c2.1-9.1,5.4-17.3,9.9-24.8s9.5-13.8,14.8-19.1s10.6-9.3,15.8-11.9c5.2-2.7,9.5-3.9,12.9-3.6c4,0.8,7.3,1.9,9.8,3.6
		c2.1,1.5,3.5,3.7,4.1,6.6c0.7,2.9-0.6,6.7-3.7,11.5c2.1-0.4,3.8-0.7,5.2-0.9s2.5-0.2,3.2-0.2c0.9,0,1.5,0.1,1.8,0.2
		c0.1,0.3,0.2,0.9,0.2,1.9s-0.2,2.7-0.7,5.2c-0.4,2.5-1.1,5.9-2,10.3c-0.9,4.3-2.1,9.9-3.6,16.7c-0.3,1.3-0.6,2.6-0.8,3.7
		c-0.2,1.1-0.4,2.2-0.7,3.4c-0.2,1.1-0.5,2.4-0.8,3.9s-0.7,3.4-1.1,5.6c-0.1,1.3-0.2,2.8-0.1,4.4c0.1,1.6,0.3,3,0.8,4.4
		s1.1,2.4,2.1,3.2s2.3,1.2,4.1,1.2c1.5,0,3.4-0.9,5.8-2.8s4.9-4.2,7.6-7.1s5.5-6.1,8.4-9.6c2.9-3.5,5.6-6.9,8.1-10.1
		c2.5-3.3,4.8-6.2,6.8-8.7s3.5-4.4,4.4-5.6c1.2-1.3,2.4-2.1,3.6-2.3s2.1,0.1,2.7,1c0.6,0.9,0.7,2.2,0.3,4
		C275.2,183,274.1,185.1,272.3,187.5z M206.9,197.3c0.7-3,1.6-6.5,2.7-10.5c1-4,1.9-7.9,2.7-11.6c0.7-3.7,1.3-6.8,1.7-9.3
		c0.4-2.5,0.3-3.6-0.3-3.5c-0.8,0.1-1.6,0.4-2.5,0.7c-0.8,0.3-1.7,0.5-2.9,0.7c-1.2,0.1-2.4,0.4-3.6,0.7c1.2-2.4,1.9-4.4,2.1-5.9
		s0.3-2.8,0.1-3.7c-0.1-1-0.4-1.9-0.9-2.4c-1.6-1.3-4.5-0.3-8.6,3.2s-8.8,9.9-14.2,19.3c-2.2,3.9-4,8-5.4,12.4
		c-1.3,4.4-2.3,8.5-2.8,12.4c-0.5,3.9-0.6,7.2-0.3,10.1s0.9,4.8,1.8,5.7c1.6,1.6,3.5,2.4,5.6,2.3c2.1-0.1,4.2-0.7,6.4-1.8
		c2.1-1.1,4.3-2.6,6.5-4.4s4.1-3.6,5.8-5.6c1.7-1.9,3.1-3.7,4.2-5.4C206.2,199.2,206.8,198.1,206.9,197.3z"/>
	<path class="st0" d="M288.8,224.3c0.9,0.6,2,0.9,3.5,0.9c1.4,0,2.8-0.3,4.2-0.9c1.4-0.6,2.8-1.4,4-2.4c1.3-1,2.2-2.4,2.8-4
		c0.6-1.6,0.6-4,0-7c-0.6-3.1-1.5-6.3-2.8-9.8c-1.3-3.5-2.6-7-4.1-10.6s-2.8-6.8-3.8-9.8c-0.9-2.2-1.6-4.3-2.2-6.2
		c-0.6-1.6-1.1-3.2-1.7-4.8c-0.5-1.6-0.9-2.6-1.2-3.2c-0.8,1.2-2,3.1-3.9,5.8c-1.9,2.7-3.9,5.5-6,8.4c-2.2,2.9-4.2,5.6-6.1,8
		c-1.9,2.4-3.3,4.1-4,5c-1.2,1.3-2.3,2.1-3.5,2.3s-2,0-2.8-0.7c-0.8-0.7-1.1-1.6-1.2-2.9c-0.1-1.3,0.5-2.8,1.7-4.6
		c0.9-1.2,2.2-3.1,4-5.7c1.8-2.6,3.6-5.3,5.4-8c1.8-2.8,3.4-5.2,4.9-7.4s2.3-3.5,2.5-3.9c0.3-1.2-0.1-2.8-1.2-4.7
		c-1.1-1.9-1.3-4.2-0.6-6.7c0.6-2.1,1.9-4.5,4-7.2c2.1-2.8,4.5-5.2,7.4-7.5c2.8-2.2,5.7-3.9,8.7-5c3-1.1,5.6-1.1,8,0.1
		c1.9,1.2,3.5,2.5,4.7,3.9c1.2,1.4,1.6,2.9,1.3,4.4c-0.3,0.8-0.8,1.7-1.3,2.9c-0.6,1.2-1.5,2.6-2.7,4.4s-2.9,3.9-5.1,6.6
		c0.5,3.4,1.1,6.6,1.9,9.4c0.8,2.8,1.6,5.3,2.3,7.4c0.9,2.5,1.9,4.8,2.9,6.9c1.3,2.7,2.8,5.4,4.2,8.3s2.8,5.6,4,8.4
		c1.2,2.8,2.2,5.3,2.9,7.7c0.7,2.4,1,4.4,0.7,6c-0.5,2.5-1.8,5.6-3.9,9.1c-2.2,3.6-4.8,7-8,10.4c-3.2,3.4-6.8,6.2-10.9,8.6
		c-4.1,2.4-8.4,3.6-12.8,3.6c-3.1,0-6.1-1-9-2.9s-5.4-4.2-7.4-6.8c-2-2.6-3.5-5.2-4.5-7.7c-1-2.5-1.1-4.5-0.3-5.8
		c0.9-1.8,1.7-3.2,2.5-4.2c0.7-1,1.9-2.2,3.4-3.6c0.6-0.4,1.3-1,2.2-1.6c0.7-0.4,1.8-0.9,3.1-1.3s2.9-1,4.7-1.6
		c1.5,4.6,2.8,8.2,4,10.8c1.2,2.6,2.1,4.6,2.9,6.1C287.3,222.6,288.1,223.7,288.8,224.3z"/>
	<path class="st0" d="M452.8,182.8c1-1.2,2.1-1.8,3.2-1.9c1.1-0.1,2,0.2,2.7,0.9c0.7,0.7,1,1.7,0.9,3s-0.7,2.8-1.9,4.5
		c-2.8,3.9-6.1,7.9-9.8,11.9s-7.7,8.1-11.9,11.9s-8.5,7.5-12.8,10.9c-4.3,3.4-8.5,6.2-12.5,8.5c-4.5,2.5-8.2,3.8-11.3,3.8
		s-6.1-1.9-9-5.8c-2.7-3.4-4-7.1-3.9-11c0.1-3.9,0.9-8.9,2.6-14.8c1-3.7,2.5-8.1,4.4-13.3c1.9-5.1,3.4-10.1,4.5-14.8
		c1.1-4.8,1.5-8.8,1-12.2s-2.4-5-5.8-5c-2.4,0-5,0.8-7.7,2.5s-5.5,3.8-8.3,6.4s-5.4,5.5-7.9,8.8s-4.8,6.5-6.7,9.6
		c-1.2,5.8-2.4,11.5-3.6,17.2c-1,4.8-2.1,9.9-3.2,15.5s-2.2,10.5-3.2,14.8c-0.9,0.7-1.9,1.3-2.9,1.6s-2,0.4-2.9,0.4
		c-1,0-2.1-0.1-3.1-0.2c-1.2-0.3-2.3-0.8-3.4-1.3c-0.9-0.6-1.8-1.4-2.7-2.3c-0.9-1-1.6-2.3-2-3.9c6.7-27.5,12-49.6,15.8-66.3
		s6.8-29.4,8.9-38.2c2.4-10.4,4-17.6,4.9-21.6c0.5-2.8,0.8-5.6,1.1-8.3c0.3-2.4,0.5-4.8,0.5-7.4s-0.2-4.8-0.7-6.9
		c1.2-0.7,2.5-1.3,3.9-1.8c1.4-0.4,2.8-0.8,4.1-1.1c1.6-0.4,3.3-0.8,4.9-1.1c1.6-0.3,3.1-0.4,4.5-0.4c1.2,0,2.3,0.1,3.4,0.3
		c1,0.2,1.7,0.7,2,1.4c0.9,0.8,1.3,2.2,1.2,4.5c-0.1,2.2-0.3,4.5-0.6,6.9c-0.6,2.8-1.3,5.9-2,9.2c-3.1,12.1-6.6,23.8-10.5,35.1
		s-7.4,23.5-10.7,36.5c1.9-3,4.2-6,6.9-9.1s5.6-6,8.8-8.6c3.2-2.6,6.6-4.8,10.1-6.5s7.4-2.6,11.4-2.6c2.1,0,4,0.3,5.9,1
		c1.9,0.7,3.5,1.8,4.9,3.4c1.4,1.6,2.5,3.6,3.2,6.2c0.7,2.6,1,5.8,0.9,9.7c0,2.4-0.3,4.8-0.8,7.4s-1.2,5.3-2.1,8.4
		c-0.9,3.1-2,6.4-3.5,10.1c-1.4,3.7-3.1,8-5,12.9c-1.3,3.4-2.4,6.3-3.1,8.7c-0.8,2.4-0.6,4.5,0.5,6.2c1.3,2.4,4,2.9,7.9,1.7
		c3.9-1.3,9.9-5.1,17.7-11.5c1.8-1.5,3.8-3.4,6-5.6s4.4-4.5,6.5-6.8c2.1-2.3,4-4.5,5.8-6.6C450.2,185.6,451.6,184,452.8,182.8z"/>
	<path class="st0" d="M462.4,148c0.7-0.9,2.1-1.6,4.2-2.2c2.1-0.6,4.2-1.1,6.5-1.4s4.3-0.6,6.1-0.7c1.9-0.1,2.9,0,3.2,0.1
		c0.1,0.1-0.2,1.7-1.1,4.7c-0.9,3-2,6.5-3.4,10.5s-2.8,8.1-4.2,12.4s-2.6,7.7-3.4,10.4c-0.8,2.7-1.6,5.7-2.7,9c-1,3.4-2,6.6-2.8,9.8
		s-1.4,6.2-1.7,9c-0.3,2.8-0.1,5,0.7,6.5c0.7,1.8,1.6,3,2.5,3.7s1.9,1,2.9,1c3,0,6.7-1.6,11.3-4.9c4.5-3.3,9.1-7.2,13.8-11.7
		c4.7-4.5,9-9.1,13-13.8c4-4.7,7-8.4,8.9-11.3c1.2-1.5,2.4-2.5,3.7-2.9c1.3-0.4,2.3-0.4,3.1,0.2c0.8,0.6,1.3,1.6,1.3,2.9
		c0.1,1.3-0.4,2.9-1.5,4.7c-2.4,4.2-5.9,9.1-10.5,14.8s-9.5,11.2-14.7,16.5c-5.2,5.3-10.3,9.8-15.3,13.5c-5,3.7-9,5.6-12.2,5.8
		c-2.5,0.1-5-0.3-7.5-1.2c-2.5-1-4.7-2.3-6.7-4c-2-1.7-3.7-3.7-5-6s-2.1-4.7-2.2-7.2c-0.5-3.7-0.5-8.8,0-15.3s1.3-13.1,2.5-19.9
		s2.7-13.2,4.6-19.3C457.9,155.5,460.1,151,462.4,148z M493.2,100.5c-0.5,1.6-1.3,3.2-2.6,4.8c-1.3,1.6-2.7,2.8-4.2,3.8
		c-1.6,1-3.2,1.6-4.8,1.9c-1.6,0.3-3,0-4-0.9c-3.1-2.4-4.8-4.9-4.9-7.7c-0.1-2.8,0.5-5.3,2-7.8c1.5-2.4,3.4-4.5,5.6-6.2
		c2.2-1.7,4.2-2.7,5.8-3c1.6-0.3,3,0,4.1,1c1.1,1,2,2.2,2.6,3.8c0.6,1.6,0.9,3.3,1,5.2C493.9,97.3,493.7,99,493.2,100.5z"/>
	<path class="st0" d="M572.9,196.4c-1.5,5.7-3.5,10.9-6,15.8c-2.5,4.9-5.5,9.1-9,12.7s-7.4,6.4-11.8,8.4s-9.2,3-14.4,3
		c-6.1,0-10.9-1.3-14.4-3.9c-3.5-2.6-6.1-5.8-7.8-9.7c-1.7-3.9-2.8-8.1-3.1-12.7s-0.6-8.9-0.6-12.9c0-2.8,0.3-5.9,1-9.4
		s1.6-6.9,2.8-10.5s2.7-7.1,4.6-10.7s4-6.8,6.6-9.8c0.9-2.5,2.3-4.8,4.1-6.7c1.9-1.9,4-3.5,6.5-4.8c2.5-1.3,5.1-2.2,7.9-2.9
		c2.8-0.7,5.6-1,8.3-1c0.5,0,0.8,0.1,1.2,0.2c0.4,0.1,0.8,0.3,1.2,0.4c1.9,0.1,4.3,0.9,7.2,2.2s5.7,3.4,8.5,6
		c2.8,2.7,5.1,6.1,7,10.1c1.9,4.1,2.9,9,2.9,14.8c0,1.2-0.1,2.6-0.2,4.4c-0.2,1.7-0.3,3.2-0.5,4.4c3.4-1.3,7-3,10.7-4.9
		c3.7-1.9,7.3-4,10.8-6.1c3.5-2.1,6.7-4.4,9.7-6.6c3-2.2,5.4-4.2,7.1-6c1.5-1.3,2.8-2.1,3.8-2.2s1.8,0.1,2.2,0.9
		c0.5,0.8,0.5,1.8,0.2,3.1c-0.3,1.3-1.1,2.8-2.5,4.5c-0.8,0.9-2.6,2.7-5.7,5.4c-3,2.7-6.7,5.6-10.8,8.7c-4.2,3.1-8.7,6.2-13.6,9.1
		C582,192.7,577.3,194.9,572.9,196.4z M520.9,201.8c0,2.7,0.2,5.3,0.5,7.9c0.3,2.6,0.9,4.9,1.8,6.9c0.9,2,2.1,3.6,3.6,4.9
		c1.5,1.3,3.4,1.9,5.8,1.9c2.7,0,5.1-0.6,7.4-1.9c2.2-1.3,4.2-2.9,6-4.9c1.8-2,3.4-4.3,4.8-6.9c1.4-2.6,2.6-5.3,3.7-8.1
		c-1,0.1-2,0.3-3,0.3c-1,0.1-2,0.1-3.2,0.1c-5.7,0-10.5-1.7-14.6-5c-4.1-3.4-7.2-7.6-9.5-12.8c-0.9,3.1-1.6,6.2-2.2,9.1
		C521.2,196.3,520.9,199.1,520.9,201.8z M535.2,162.5c-0.5,1.3-0.7,2.8-0.7,4.2c0,2.4,0.2,4.9,0.5,7.5c0.3,2.6,1,4.9,2.2,7
		s3.1,3.8,5.7,5.2c2.6,1.4,6.2,2.1,10.8,2.1c0.7,0,1.5,0,2.2-0.1s1.5-0.2,2.2-0.3c0.5-1.9,0.8-3.7,1.2-5.2c0.4-1.6,0.6-2.9,0.6-4.1
		c0.3-2.8,0.3-5.7,0-8.7c-0.3-3-0.9-5.7-1.7-8.1c-0.8-2.5-1.9-4.5-3.1-6c-1.3-1.6-2.8-2.3-4.6-2.3c-2.8,0-5.5,0.8-8.1,2.3
		C539.8,157.5,537.4,159.7,535.2,162.5z"/>
	<path class="st0" d="M663,237.5c-3.4,0-6.4-0.6-8.8-1.9c-2.5-1.3-4.4-2.9-5.9-5c-1.5-2.1-2.5-4.5-2.9-7.2s-0.3-5.7,0.5-8.8
		c0.5-2.1,1.2-4.9,2.2-8.4c1-3.5,2.1-7.3,3.2-11.4c1.1-4.1,2.2-8.2,3.1-12.3s1.6-7.8,1.9-11.2c0.3-3.4,0.2-6.1-0.5-8.3
		c-0.6-2.1-1.9-3.2-3.8-3.2c-2.4,0-4.8,0.8-7.4,2.3c-2.5,1.6-5.1,3.7-7.7,6.4c-2.6,2.7-5.2,5.8-7.8,9.3c-2.6,3.5-5.2,7.1-7.7,10.8
		c-1.3,5.1-2.5,9.5-3.3,13.3c-0.9,3.8-1.7,7.2-2.3,10.3c-0.7,3.1-1.3,5.7-1.9,8c-0.6,2.3-1.1,4.5-1.6,6.6c-0.5,1.5-1.8,2.9-4,4.4
		s-4.6,2.6-7.1,3.5s-4.7,1.3-6.6,1.3c-1.9,0-2.6-0.7-2.3-2c0.2-0.9,0.6-2.9,1.5-6c0.8-3.1,1.8-6.8,2.9-11c1.1-4.2,2.3-8.7,3.5-13.5
		s2.3-9.3,3.3-13.6c0.7-3.4,1.6-7.2,2.5-11.4c0.7-3.6,1.7-7.7,2.8-12.5c1.1-4.8,2.4-10,3.9-15.6c1-0.9,2.1-1.6,3.2-2.1
		c1.1-0.5,2.3-0.9,3.5-1.2c1.2-0.4,2.5-0.7,3.8-0.9c1.2,0,2.4,0.1,3.6,0.2c1,0.1,2.1,0.4,3.2,0.8s2.1,0.9,3,1.7
		c-0.5,1-1,2.5-1.6,4.4c-0.6,1.9-1.2,3.8-1.8,5.9c-0.6,2.4-1.3,4.8-2.2,7.4c1.9-2.7,4.1-5.4,6.6-8.1c2.5-2.8,5.1-5.2,8-7.5
		s6-4.1,9.3-5.5c3.3-1.4,6.6-2.1,10-2.1c2.8,0,5.4,0.8,7.6,2.4c2.2,1.6,4,3.9,5.2,6.8s2,6.4,2.2,10.4s-0.3,8.4-1.7,13.2l-2.5,9.8
		c-0.8,3.1-1.7,6.8-2.8,11c-1.1,4.2-2.5,8.9-4.1,13.9c-0.9,3.3-1.2,6.1-1,8.5c0.2,2.4,1.7,3.6,4.3,3.6s6.1-1.6,10.2-4.9
		s8.2-7.2,12.4-11.8c4.2-4.6,8.1-9.3,11.8-14.2c3.7-4.8,6.5-8.7,8.5-11.7c1.3-1.9,2.6-3.2,3.8-3.8s2.1-0.7,2.8-0.2s1,1.4,1,3
		s-0.6,3.5-1.8,5.9c-1,2.1-2.6,4.8-4.8,8.3s-4.7,7.1-7.7,10.9c-3,3.9-6.2,7.8-9.6,11.7c-3.4,3.9-7,7.5-10.7,10.7
		c-3.7,3.2-7.4,5.8-11,7.8C669.8,236.5,666.3,237.5,663,237.5z"/>
</g>
</svg>
